<?xml version="1.0" standalone="no"?>
<!DOCTYPE svg PUBLIC "-//W3C//DTD SVG 20010904//EN"
 "http://www.w3.org/TR/2001/REC-SVG-20010904/DTD/svg10.dtd">
<svg version="1.0" xmlns="http://www.w3.org/2000/svg"
 width="157.000000pt" height="157.000000pt" viewBox="0 0 157.000000 157.000000"
 preserveAspectRatio="xMidYMid meet">
<metadata>
Created by potrace 1.11, written by Peter Selinger 2001-2013
</metadata>
<g transform="translate(0.000000,157.000000) scale(0.100000,-0.100000)"
fill="#000000" stroke="none">
<path d="M635 1526 c-274 -53 -486 -239 -576 -506 -27 -80 -32 -112 -35 -206
-3 -122 9 -195 53 -306 14 -37 34 -76 44 -87 11 -11 19 -25 19 -30 0 -14 85
-117 127 -154 92 -81 207 -143 323 -174 88 -23 272 -23 360 0 270 72 475 277
546 547 27 100 24 284 -5 380 -46 149 -119 265 -230 363 -73 65 -211 138 -306
162 -84 22 -235 27 -320 11z"/>
</g>
</svg>
